<svg width="1200" height="800" viewBox="0 0 1200 800" xmlns="http://www.w3.org/2000/svg">
  <rect width="1200" height="800" rx="40" fill="#0f1722"/>
  <rect x="90" y="100" width="1020" height="620" rx="30" fill="#f8efe8"/>
  <rect x="140" y="150" width="440" height="240" rx="24" fill="#d8bd93"/>
  <rect x="640" y="150" width="420" height="240" rx="24" fill="#efe2ca"/>
  <rect x="140" y="430" width="920" height="220" rx="24" fill="#c9a982"/>
  <rect x="180" y="470" width="280" height="24" rx="12" fill="#6f4b2b"/>
  <rect x="180" y="510" width="420" height="18" rx="9" fill="#8c663c"/>
  <rect x="180" y="544" width="340" height="18" rx="9" fill="#8c663c"/>
  <circle cx="780" cy="270" r="86" fill="#8b6c4b"/>
  <path d="M690 450C690 398 730 358 782 358C834 358 874 398 874 450V510H690V450Z" fill="#65472e"/>
  <text x="240" y="640" fill="#2f2318" font-family="Georgia, serif" font-size="40" font-weight="700">PRODUCT STORY</text>
</svg>
