<svg width="1200" height="800" viewBox="0 0 1200 800" fill="none" xmlns="http://www.w3.org/2000/svg">
  <rect width="1200" height="800" rx="40" fill="#0F1722"/>
  <rect x="80" y="80" width="1040" height="640" rx="32" fill="#F7EFE6"/>
  <rect x="140" y="140" width="280" height="420" rx="24" fill="#E0D1BD"/>
  <rect x="460" y="140" width="600" height="120" rx="24" fill="#C9A982"/>
  <rect x="460" y="300" width="600" height="260" rx="24" fill="#EFE2CA"/>
  <circle cx="220" cy="230" r="82" fill="#8B6D4A"/>
  <path d="M160 500C160 438 208 390 270 390C332 390 380 438 380 500V560H160V500Z" fill="#6E4F2F"/>
  <rect x="500" y="340" width="240" height="28" rx="14" fill="#6E4F2F"/>
  <rect x="500" y="392" width="420" height="20" rx="10" fill="#B8915D"/>
  <rect x="500" y="430" width="340" height="20" rx="10" fill="#B8915D"/>
  <rect x="500" y="468" width="220" height="20" rx="10" fill="#B8915D"/>
  <rect x="460" y="610" width="600" height="80" rx="24" fill="#D7B889"/>
  <text x="520" y="660" fill="#2F2417" font-family="Georgia, serif" font-size="42" font-weight="700">OASIS THREADS</text>
</svg>
